<svg xmlns="http://www.w3.org/2000/svg" xmlns:xlink="http://www.w3.org/1999/xlink" width="600" zoomAndPan="magnify" viewBox="0 0 450 52.499999" height="70" preserveAspectRatio="xMidYMid meet" version="1.0"><defs><g/><clipPath id="f482cb1f61"><path d="M 45 0 L 136 0 L 136 52.003906 L 45 52.003906 Z M 45 0 " clip-rule="nonzero"/></clipPath><clipPath id="f0ae86c659"><path d="M 69 0 L 214 0 L 214 52.003906 L 69 52.003906 Z M 69 0 " clip-rule="nonzero"/></clipPath><clipPath id="b4592c1d9e"><path d="M 150 0 L 242 0 L 242 52.003906 L 150 52.003906 Z M 150 0 " clip-rule="nonzero"/></clipPath><clipPath id="b7fd44af67"><path d="M 174 0 L 399 0 L 399 52.003906 L 174 52.003906 Z M 174 0 " clip-rule="nonzero"/></clipPath></defs><g clip-path="url(#f482cb1f61)"><path stroke-linecap="butt" transform="matrix(0.742924, 0, 0, 0.742924, 28.737598, 7.466799)" fill="none" stroke-linejoin="miter" d="M 77.234755 38.001736 L 79.201223 34.599851 L 89.564617 34.599851 L 90.148248 38.001736 L 95.269478 38.001736 L 89.901125 7.794889 L 71.824338 38.001736 Z M 87.556085 20.166814 L 88.849537 30.37247 L 81.719775 30.37247 Z M 87.556085 20.166814 " stroke="#f9bc8c" stroke-width="8.653033" stroke-opacity="1" stroke-miterlimit="4"/></g><g clip-path="url(#f0ae86c659)"><path stroke-linecap="butt" transform="matrix(0.742924, 0, 0, 0.742924, 28.737598, 7.466799)" fill="none" stroke-linejoin="miter" d="M 113.057079 38.422371 C 117.799738 38.422371 122.205889 35.399057 122.205889 29.778323 C 122.205889 26.292311 120.523349 23.311061 117.421166 21.891418 C 115.32325 20.929215 113.272654 20.929215 113.057079 20.929215 C 110.880293 20.929215 108.777118 19.625247 108.777118 17.190822 C 108.777118 14.461953 110.754102 13.121179 113.057079 13.121179 C 115.281186 13.121179 117.179301 14.220088 117.25817 16.643997 L 122.121762 16.643997 C 122.042893 11.659473 118.141504 8.215524 113.057079 8.215524 C 108.319678 8.215524 103.871463 11.617409 103.871463 17.190822 C 103.871463 20.671576 105.590808 23.274255 108.656186 24.704414 C 110.796166 25.666616 112.815214 25.666616 113.057079 25.666616 C 115.034063 25.750743 117.342297 27.307093 117.342297 29.778323 C 117.342297 32.081299 115.32325 33.516716 113.057079 33.516716 C 110.880293 33.516716 108.871761 32.296875 108.777118 29.857192 L 103.871463 29.857192 C 103.95559 35.356994 107.988428 38.296181 113.057079 38.422371 Z M 142.417398 13.121179 L 142.417398 8.636159 L 125.218687 8.636159 L 125.218687 13.121179 L 131.386247 13.121179 L 131.386247 38.001736 L 136.249838 38.001736 L 136.249838 13.121179 Z M 155.336149 25.750743 L 160.956884 38.001736 L 166.367301 38.001736 L 160.362737 24.9936 C 163.007479 24.031398 166.030793 21.928223 166.030793 17.190822 C 166.030793 8.636159 156.219483 8.636159 156.219483 8.636159 L 146.434462 8.636159 L 146.434462 38.001736 L 151.350633 38.001736 L 151.350633 25.750743 Z M 151.350633 20.887152 L 151.350633 13.541814 L 156.219483 13.541814 C 156.219483 13.541814 161.125138 13.541814 161.125138 17.190822 C 161.125138 20.887152 156.219483 20.887152 156.219483 20.887152 Z M 184.943592 7.963143 C 165.6049 7.963143 165.568094 38.080605 184.943592 38.080605 C 204.24022 38.080605 204.198156 7.963143 184.943592 7.963143 Z M 184.943592 33.337946 C 172.235158 33.337946 172.271964 12.742608 184.943592 12.742608 C 197.652025 12.742608 197.652025 33.337946 184.943592 33.337946 Z M 184.943592 33.337946 " stroke="#f9bc8c" stroke-width="8.653033" stroke-opacity="1" stroke-miterlimit="4"/></g><g clip-path="url(#b4592c1d9e)"><path stroke-linecap="butt" transform="matrix(0.742924, 0, 0, 0.742924, 28.737598, 7.466799)" fill="none" stroke-linejoin="miter" d="M 220.807979 25.750743 L 223.694586 25.750743 L 228.73169 38.001736 L 234.305103 38.001736 L 229.278515 25.288045 C 232.380698 24.488838 236.161155 22.564434 237.24429 17.485267 C 239.089825 8.799155 229.530896 8.636159 229.530896 8.636159 L 219.546074 8.636159 L 218.573356 13.541814 L 221.686054 20.887152 L 216.943395 20.887152 L 213.289129 38.001736 L 218.2053 38.001736 Z M 227.133277 20.845088 L 224.236154 13.541814 L 228.479309 13.541814 C 228.479309 13.541814 233.221968 13.378818 232.459567 16.901636 C 231.839131 19.924949 228.479309 20.71364 227.133277 20.845088 Z M 227.133277 20.845088 " stroke="#f9bc8c" stroke-width="8.653033" stroke-opacity="1" stroke-miterlimit="4"/></g><g clip-path="url(#b7fd44af67)"><path stroke-linecap="butt" transform="matrix(0.742924, 0, 0, 0.742924, 28.737598, 7.466799)" fill="none" stroke-linejoin="miter" d="M 250.084171 13.541814 L 264.759073 13.541814 L 264.759073 8.636159 L 245.178516 8.636159 L 245.178516 38.001736 L 264.759073 38.001736 L 264.759073 33.096081 L 250.084171 33.096081 L 250.084171 25.750743 L 262.293101 25.750743 L 262.293101 20.887152 L 250.084171 20.887152 Z M 274.743895 13.541814 L 289.418797 13.541814 L 289.418797 8.636159 L 269.83824 8.636159 L 269.83824 38.001736 L 274.743895 38.001736 L 274.743895 25.750743 L 286.952825 25.750743 L 286.952825 20.887152 L 274.743895 20.887152 Z M 299.067111 13.541814 L 313.742013 13.541814 L 313.742013 8.636159 L 294.161456 8.636159 L 294.161456 38.001736 L 313.742013 38.001736 L 313.742013 33.096081 L 299.067111 33.096081 L 299.067111 25.750743 L 311.276041 25.750743 L 311.276041 20.887152 L 299.067111 20.887152 Z M 327.670288 25.750743 L 333.291022 38.001736 L 338.701439 38.001736 L 332.696876 24.9936 C 335.341618 24.031398 338.359674 21.928223 338.359674 17.190822 C 338.359674 8.636159 328.548363 8.636159 328.548363 8.636159 L 318.768601 8.636159 L 318.768601 38.001736 L 323.684772 38.001736 L 323.684772 25.750743 Z M 323.684772 20.887152 L 323.684772 13.541814 L 328.548363 13.541814 C 328.548363 13.541814 333.454018 13.541814 333.454018 17.190822 C 333.454018 20.887152 328.548363 20.887152 328.548363 20.887152 Z M 348.844 13.541814 L 363.524159 13.541814 L 363.524159 8.636159 L 343.938345 8.636159 L 343.938345 38.001736 L 363.524159 38.001736 L 363.524159 33.096081 L 348.844 33.096081 L 348.844 25.750743 L 361.052929 25.750743 L 361.052929 20.887152 L 348.844 20.887152 Z M 393.057991 38.001736 L 393.057991 8.636159 L 388.183883 8.636159 L 388.183883 29.5312 L 373.545787 8.636159 L 368.598068 8.636159 L 368.598068 38.001736 L 373.503724 38.001736 L 373.503724 17.106695 L 388.099756 38.001736 Z M 413.432496 33.516716 C 408.022079 33.516716 403.700055 29.610069 403.700055 23.311061 C 403.700055 17.406398 407.391127 13.121179 413.432496 13.121179 C 416.114044 13.121179 418.59579 14.220088 420.357199 15.981497 L 423.79589 12.537548 C 421.151147 9.856 417.496881 8.215524 413.432496 8.215524 C 404.830511 8.215524 398.705015 14.461953 398.705015 23.311061 C 398.705015 32.549256 405.330015 38.422371 413.432496 38.422371 C 417.496881 38.422371 421.151147 36.781895 423.79589 34.137153 L 420.357199 30.656398 C 418.59579 32.417807 416.114044 33.516716 413.432496 33.516716 Z M 433.728132 13.541814 L 448.403034 13.541814 L 448.403034 8.636159 L 428.822477 8.636159 L 428.822477 38.001736 L 448.403034 38.001736 L 448.403034 33.096081 L 433.728132 33.096081 L 433.728132 25.750743 L 445.937062 25.750743 L 445.937062 20.887152 L 433.728132 20.887152 Z M 433.728132 13.541814 " stroke="#f9bc8c" stroke-width="8.653033" stroke-opacity="1" stroke-miterlimit="4"/></g><g fill="#ffffff" fill-opacity="1"><g transform="translate(86.801789, 35.697929)"><g><path d="M -0.6875 0 L 0.777344 -2.523438 L 8.476562 -2.523438 L 8.914062 0 L 12.714844 0 L 8.726562 -22.4375 L -4.707031 0 Z M 6.980469 -13.246094 L 7.945312 -5.671875 L 2.648438 -5.671875 Z M 6.980469 -13.246094 "/></g></g></g><g fill="#ffffff" fill-opacity="1"><g transform="translate(104.225689, 35.697929)"><g><path d="M 8.507812 0.3125 C 12.03125 0.3125 15.300781 -1.933594 15.300781 -6.109375 C 15.300781 -8.695312 14.054688 -10.90625 11.75 -11.96875 C 10.191406 -12.683594 8.664062 -12.683594 8.507812 -12.683594 C 6.886719 -12.683594 5.328125 -13.652344 5.328125 -15.457031 C 5.328125 -17.484375 6.792969 -18.480469 8.507812 -18.480469 C 10.160156 -18.480469 11.5625 -17.671875 11.625 -15.863281 L 15.238281 -15.863281 C 15.175781 -19.570312 12.277344 -22.128906 8.507812 -22.128906 C 4.988281 -22.128906 1.683594 -19.601562 1.683594 -15.457031 C 1.683594 -12.871094 2.960938 -10.9375 5.234375 -9.878906 C 6.824219 -9.164062 8.320312 -9.164062 8.507812 -9.164062 C 9.972656 -9.101562 11.6875 -7.945312 11.6875 -6.109375 C 11.6875 -4.394531 10.191406 -3.335938 8.507812 -3.335938 C 6.886719 -3.335938 5.390625 -4.238281 5.328125 -6.046875 L 1.683594 -6.046875 C 1.746094 -1.964844 4.738281 0.21875 8.507812 0.3125 Z M 8.507812 0.3125 "/></g></g></g><g fill="#ffffff" fill-opacity="1"><g transform="translate(121.143647, 35.697929)"><g><path d="M 13.402344 -18.480469 L 13.402344 -21.816406 L 0.625 -21.816406 L 0.625 -18.480469 L 5.203125 -18.480469 L 5.203125 0 L 8.820312 0 L 8.820312 -18.480469 Z M 13.402344 -18.480469 "/></g></g></g><g fill="#ffffff" fill-opacity="1"><g transform="translate(135.101742, 35.697929)"><g><path d="M 9.039062 -9.101562 L 13.214844 0 L 17.234375 0 L 12.777344 -9.660156 C 14.742188 -10.378906 16.984375 -11.9375 16.984375 -15.457031 C 16.984375 -21.816406 9.691406 -21.816406 9.691406 -21.816406 L 2.429688 -21.816406 L 2.429688 0 L 6.078125 0 L 6.078125 -9.101562 Z M 6.078125 -12.714844 L 6.078125 -18.167969 L 9.691406 -18.167969 C 9.691406 -18.167969 13.339844 -18.167969 13.339844 -15.457031 C 13.339844 -12.714844 9.691406 -12.714844 9.691406 -12.714844 Z M 6.078125 -12.714844 "/></g></g></g><g fill="#ffffff" fill-opacity="1"><g transform="translate(153.764466, 35.697929)"><g><path d="M 12.371094 -22.316406 C -1.996094 -22.316406 -2.027344 0.0625 12.371094 0.0625 C 26.710938 0.0625 26.679688 -22.316406 12.371094 -22.316406 Z M 12.371094 -3.460938 C 2.929688 -3.460938 2.960938 -18.761719 12.371094 -18.761719 C 21.816406 -18.761719 21.816406 -3.460938 12.371094 -3.460938 Z M 12.371094 -3.460938 "/></g></g></g><g fill="#ffffff" fill-opacity="1"><g transform="translate(178.596164, 35.697929)"><g/></g></g><g fill="#ffffff" fill-opacity="1"><g transform="translate(189.348583, 35.697929)"><g><path d="M 3.429688 -9.101562 L 5.578125 -9.101562 L 9.320312 0 L 13.464844 0 L 9.722656 -9.441406 C 12.03125 -10.035156 14.835938 -11.46875 15.644531 -15.238281 C 17.015625 -21.691406 9.910156 -21.816406 9.910156 -21.816406 L 2.492188 -21.816406 L 1.777344 -18.167969 L 4.082031 -12.714844 L 0.5625 -12.714844 L -2.152344 0 L 1.496094 0 Z M 8.132812 -12.746094 L 5.984375 -18.167969 L 9.132812 -18.167969 C 9.132812 -18.167969 12.652344 -18.292969 12.09375 -15.675781 C 11.625 -13.433594 9.132812 -12.839844 8.132812 -12.746094 Z M 8.132812 -12.746094 "/></g></g></g><g fill="#ffffff" fill-opacity="1"><g transform="translate(208.420851, 35.697929)"><g><path d="M 6.109375 -18.167969 L 17.015625 -18.167969 L 17.015625 -21.816406 L 2.460938 -21.816406 L 2.460938 0 L 17.015625 0 L 17.015625 -3.644531 L 6.109375 -3.644531 L 6.109375 -9.101562 L 15.175781 -9.101562 L 15.175781 -12.714844 L 6.109375 -12.714844 Z M 6.109375 -18.167969 "/></g></g></g><g fill="#ffffff" fill-opacity="1"><g transform="translate(226.74085, 35.697929)"><g><path d="M 6.109375 -18.167969 L 17.015625 -18.167969 L 17.015625 -21.816406 L 2.460938 -21.816406 L 2.460938 0 L 6.109375 0 L 6.109375 -9.101562 L 15.175781 -9.101562 L 15.175781 -12.714844 L 6.109375 -12.714844 Z M 6.109375 -18.167969 "/></g></g></g><g fill="#ffffff" fill-opacity="1"><g transform="translate(244.811602, 35.697929)"><g><path d="M 6.109375 -18.167969 L 17.015625 -18.167969 L 17.015625 -21.816406 L 2.460938 -21.816406 L 2.460938 0 L 17.015625 0 L 17.015625 -3.644531 L 6.109375 -3.644531 L 6.109375 -9.101562 L 15.175781 -9.101562 L 15.175781 -12.714844 L 6.109375 -12.714844 Z M 6.109375 -18.167969 "/></g></g></g><g fill="#ffffff" fill-opacity="1"><g transform="translate(263.131601, 35.697929)"><g><path d="M 9.039062 -9.101562 L 13.214844 0 L 17.234375 0 L 12.777344 -9.660156 C 14.742188 -10.378906 16.984375 -11.9375 16.984375 -15.457031 C 16.984375 -21.816406 9.691406 -21.816406 9.691406 -21.816406 L 2.429688 -21.816406 L 2.429688 0 L 6.078125 0 L 6.078125 -9.101562 Z M 6.078125 -12.714844 L 6.078125 -18.167969 L 9.691406 -18.167969 C 9.691406 -18.167969 13.339844 -18.167969 13.339844 -15.457031 C 13.339844 -12.714844 9.691406 -12.714844 9.691406 -12.714844 Z M 6.078125 -12.714844 "/></g></g></g><g fill="#ffffff" fill-opacity="1"><g transform="translate(281.794325, 35.697929)"><g><path d="M 6.109375 -18.167969 L 17.015625 -18.167969 L 17.015625 -21.816406 L 2.460938 -21.816406 L 2.460938 0 L 17.015625 0 L 17.015625 -3.644531 L 6.109375 -3.644531 L 6.109375 -9.101562 L 15.175781 -9.101562 L 15.175781 -12.714844 L 6.109375 -12.714844 Z M 6.109375 -18.167969 "/></g></g></g><g fill="#ffffff" fill-opacity="1"><g transform="translate(300.114324, 35.697929)"><g><path d="M 20.632812 0 L 20.632812 -21.816406 L 17.015625 -21.816406 L 17.015625 -6.296875 L 6.140625 -21.816406 L 2.460938 -21.816406 L 2.460938 0 L 6.109375 0 L 6.109375 -15.519531 L 16.953125 0 Z M 20.632812 0 "/></g></g></g><g fill="#ffffff" fill-opacity="1"><g transform="translate(323.232418, 35.697929)"><g><path d="M 12.652344 -3.335938 C 8.632812 -3.335938 5.421875 -6.234375 5.421875 -10.90625 C 5.421875 -15.300781 8.164062 -18.480469 12.652344 -18.480469 C 14.648438 -18.480469 16.488281 -17.671875 17.796875 -16.363281 L 20.351562 -18.917969 C 18.386719 -20.914062 15.675781 -22.128906 12.652344 -22.128906 C 6.265625 -22.128906 1.714844 -17.484375 1.714844 -10.90625 C 1.714844 -4.050781 6.636719 0.3125 12.652344 0.3125 C 15.675781 0.3125 18.386719 -0.902344 20.351562 -2.867188 L 17.796875 -5.453125 C 16.488281 -4.144531 14.648438 -3.335938 12.652344 -3.335938 Z M 12.652344 -3.335938 "/></g></g></g><g fill="#ffffff" fill-opacity="1"><g transform="translate(344.855006, 35.697929)"><g><path d="M 6.109375 -18.167969 L 17.015625 -18.167969 L 17.015625 -21.816406 L 2.460938 -21.816406 L 2.460938 0 L 17.015625 0 L 17.015625 -3.644531 L 6.109375 -3.644531 L 6.109375 -9.101562 L 15.175781 -9.101562 L 15.175781 -12.714844 L 6.109375 -12.714844 Z M 6.109375 -18.167969 "/></g></g></g></svg>