<svg xmlns="http://www.w3.org/2000/svg" xmlns:xlink="http://www.w3.org/1999/xlink" width="600" zoomAndPan="magnify" viewBox="0 0 450 52.499999" height="70" preserveAspectRatio="xMidYMid meet" version="1.0"><defs><g/><clipPath id="55b3ee3f6d"><path d="M 57 0 L 146 0 L 146 52.003906 L 57 52.003906 Z M 57 0 " clip-rule="nonzero"/></clipPath><clipPath id="22ab1dbb05"><path d="M 76 0 L 263 0 L 263 52.003906 L 76 52.003906 Z M 76 0 " clip-rule="nonzero"/></clipPath><clipPath id="58f0208194"><path d="M 193 0 L 272 0 L 272 52.003906 L 193 52.003906 Z M 193 0 " clip-rule="nonzero"/></clipPath><clipPath id="38e3cb39b9"><path d="M 202 0 L 289 0 L 289 52.003906 L 202 52.003906 Z M 202 0 " clip-rule="nonzero"/></clipPath><clipPath id="e4baeefaf9"><path d="M 227 0 L 321 0 L 321 52.003906 L 227 52.003906 Z M 227 0 " clip-rule="nonzero"/></clipPath><clipPath id="a6af596b61"><path d="M 252 0 L 391 0 L 391 52.003906 L 252 52.003906 Z M 252 0 " clip-rule="nonzero"/></clipPath></defs><g clip-path="url(#55b3ee3f6d)"><path stroke-linecap="butt" transform="matrix(0.638234, 0, 0, 0.638234, 28.737598, 7.466799)" fill="none" stroke-linejoin="miter" d="M 110.823281 45.489921 C 116.092951 45.489921 121.711485 42.117577 123.082456 35.727872 C 123.951554 31.529273 122.54386 28.010039 119.024626 26.388131 C 117.072216 25.225254 114.673017 25.127327 114.183384 25.127327 C 111.894352 25.127327 109.941942 23.805319 110.523381 21.118461 C 111.26395 17.807321 114.140541 16.044643 117.072216 16.044643 C 119.422452 16.044643 121.172889 17.115715 120.634293 19.955583 L 126.252827 20.347289 C 127.372861 14.526782 123.474162 10.334304 117.310912 10.334304 C 112.041242 10.334304 106.330902 14.086113 104.959931 20.439096 C 104.078592 24.637695 105.590333 27.759102 109.060603 29.368769 C 111.061977 30.550008 113.461176 30.647934 113.993651 30.647934 C 116.001145 30.73974 118.094324 32.306565 117.561849 35.036266 C 116.925326 37.870015 113.950809 39.779582 111.061977 39.779582 C 108.772944 39.779582 106.912341 38.54938 107.450936 35.727872 L 101.78956 35.330046 C 100.510395 41.731991 104.721235 45.343032 110.823281 45.489921 Z M 110.823281 45.489921 " stroke="#f9bc8c" stroke-width="10.072404" stroke-opacity="1" stroke-miterlimit="4"/></g><g clip-path="url(#22ab1dbb05)"><path stroke-linecap="butt" transform="matrix(0.638234, 0, 0, 0.638234, 28.737598, 7.466799)" fill="none" stroke-linejoin="miter" d="M 151.885091 16.044643 L 151.885091 10.823936 L 131.86524 10.823936 L 131.86524 16.044643 L 139.044477 16.044643 L 139.044477 45.000289 L 144.705854 45.000289 L 144.705854 16.044643 Z M 172.400695 41.040385 L 173.912436 45.000289 L 180.063445 45.000289 L 166.390456 9.844671 L 152.76643 45.000289 L 158.917439 45.000289 L 160.386336 41.040385 Z M 162.24082 36.119578 L 166.390456 24.245989 L 170.540092 36.119578 Z M 194.226067 30.73974 L 200.768782 45.000289 L 207.06056 45.000289 L 200.077176 29.858402 C 203.14962 28.738367 206.668854 26.296325 206.668854 20.775718 C 206.668854 10.823936 195.248175 10.823936 195.248175 10.823936 L 183.864218 10.823936 L 183.864218 45.000289 L 189.586798 45.000289 L 189.586798 30.73974 Z M 189.586798 25.078364 L 189.586798 16.534276 L 195.248175 16.534276 C 195.248175 16.534276 200.958514 16.534276 200.958514 20.775718 C 200.958514 25.078364 195.248175 25.078364 195.248175 25.078364 Z M 222.636996 45.489921 C 228.157603 45.489921 233.280384 41.970687 233.280384 35.427972 C 233.280384 31.376263 231.327974 27.905992 227.716934 26.247362 C 225.268771 25.127327 222.887933 25.127327 222.636996 25.127327 C 220.097027 25.127327 217.654985 23.615587 217.654985 20.775718 C 217.654985 17.605347 219.956258 16.044643 222.636996 16.044643 C 225.225928 16.044643 227.429275 17.317688 227.527201 20.145316 L 233.188578 20.145316 C 233.090651 14.33705 228.549309 10.334304 222.636996 10.334304 C 217.116389 10.334304 211.944645 14.288086 211.944645 20.775718 C 211.944645 24.827427 213.946018 27.857029 217.508095 29.5279 C 219.999101 30.647934 222.349337 30.647934 222.636996 30.647934 C 224.938269 30.73974 227.619007 32.551381 227.619007 35.427972 C 227.619007 38.108711 225.268771 39.779582 222.636996 39.779582 C 220.097027 39.779582 217.759032 38.359647 217.654985 35.519778 L 211.944645 35.519778 C 212.036451 41.921724 216.736924 45.343032 222.636996 45.489921 Z M 265.41252 10.823936 L 259.702181 10.823936 L 259.702181 24.986558 L 245.490596 24.986558 L 245.490596 10.823936 L 239.780256 10.823936 L 239.780256 45.000289 L 245.490596 45.000289 L 245.490596 30.73974 L 259.702181 30.73974 L 259.702181 45.000289 L 265.41252 45.000289 Z M 273.326207 45.000289 L 279.036546 45.000289 L 279.036546 10.823936 L 273.326207 10.823936 Z M 298.272986 10.823936 L 286.852306 10.823936 L 286.852306 45.098215 L 292.562646 45.098215 L 292.562646 30.837667 L 298.272986 30.837667 C 298.272986 30.837667 309.705906 30.837667 309.705906 20.824681 C 309.705906 10.823936 298.272986 10.823936 298.272986 10.823936 Z M 298.272986 25.127327 L 292.562646 25.127327 L 292.562646 16.534276 L 298.272986 16.534276 C 298.272986 16.534276 303.983325 16.534276 303.983325 20.824681 C 303.983325 25.127327 298.272986 25.127327 298.272986 25.127327 Z M 298.272986 25.127327 " stroke="#f9bc8c" stroke-width="10.072404" stroke-opacity="1" stroke-miterlimit="4"/></g><g clip-path="url(#58f0208194)"><path stroke-linecap="butt" transform="matrix(0.638234, 0, 0, 0.638234, 28.737598, 7.466799)" fill="none" stroke-linejoin="miter" d="M 322.39963 9.404002 L 322.730132 9.924236 C 321.934479 13.057885 320.539026 16.864778 318.537653 21.344916 L 315.269356 21.344916 C 316.38327 16.534276 317.178923 12.549891 317.650194 9.404002 Z M 322.39963 9.404002 " stroke="#f9bc8c" stroke-width="10.072404" stroke-opacity="1" stroke-miterlimit="4"/></g><g clip-path="url(#38e3cb39b9)"><path stroke-linecap="butt" transform="matrix(0.638234, 0, 0, 0.638234, 28.737598, 7.466799)" fill="none" stroke-linejoin="miter" d="M 339.84891 45.489921 C 345.369517 45.489921 350.498419 41.970687 350.498419 35.427972 C 350.498419 31.376263 348.539888 27.905992 344.928848 26.247362 C 342.486806 25.127327 340.099847 25.127327 339.84891 25.127327 C 337.308941 25.127327 334.866899 23.615587 334.866899 20.775718 C 334.866899 17.605347 337.168172 16.044643 339.84891 16.044643 C 342.437843 16.044643 344.641189 17.317688 344.739116 20.145316 L 350.400492 20.145316 C 350.302565 14.33705 345.761224 10.334304 339.84891 10.334304 C 334.328303 10.334304 329.156559 14.288086 329.156559 20.775718 C 329.156559 24.827427 331.157932 27.857029 334.72613 29.5279 C 337.217135 30.647934 339.561251 30.647934 339.84891 30.647934 C 342.150183 30.73974 344.830922 32.551381 344.830922 35.427972 C 344.830922 38.108711 342.486806 39.779582 339.84891 39.779582 C 337.308941 39.779582 334.970946 38.359647 334.866899 35.519778 L 329.156559 35.519778 C 329.254486 41.921724 333.948838 45.343032 339.84891 45.489921 Z M 339.84891 45.489921 " stroke="#f9bc8c" stroke-width="10.072404" stroke-opacity="1" stroke-miterlimit="4"/></g><g clip-path="url(#e4baeefaf9)"><path stroke-linecap="butt" transform="matrix(0.638234, 0, 0, 0.638234, 28.737598, 7.466799)" fill="none" stroke-linejoin="miter" d="M 383.077345 39.779582 C 377.024262 39.779582 373.156165 35.427972 374.674026 28.248735 C 376.185767 21.216387 381.8043 16.044643 389.087585 16.044643 C 391.958055 16.044643 394.498024 17.164678 396.119932 19.215014 L 400.710237 15.506047 C 398.219232 12.38464 394.308292 10.334304 389.32628 10.334304 C 379.558111 10.334304 371.154792 17.415614 369.01265 27.56937 C 366.723617 38.457574 373.156165 45.489921 382.826408 45.489921 C 387.318787 45.489921 391.866249 43.733365 395.569096 40.648679 L 392.111066 36.309311 C 389.717987 38.359647 386.449689 39.779582 383.077345 39.779582 Z M 383.077345 39.779582 " stroke="#f9bc8c" stroke-width="10.072404" stroke-opacity="1" stroke-miterlimit="4"/></g><g clip-path="url(#a6af596b61)"><path stroke-linecap="butt" transform="matrix(0.638234, 0, 0, 0.638234, 28.737598, 7.466799)" fill="none" stroke-linejoin="miter" d="M 417.945304 30.73974 L 424.488019 45.000289 L 430.785917 45.000289 L 423.796413 29.858402 C 426.874977 28.738367 430.388091 26.296325 430.388091 20.775718 C 430.388091 10.823936 418.967412 10.823936 418.967412 10.823936 L 407.583455 10.823936 L 407.583455 45.000289 L 413.306035 45.000289 L 413.306035 30.73974 Z M 413.306035 25.078364 L 413.306035 16.534276 L 418.967412 16.534276 C 418.967412 16.534276 424.677751 16.534276 424.677751 20.775718 C 424.677751 25.078364 418.967412 25.078364 418.967412 25.078364 Z M 442.604423 16.534276 L 459.686479 16.534276 L 459.686479 10.823936 L 436.894084 10.823936 L 436.894084 45.000289 L 459.686479 45.000289 L 459.686479 39.289949 L 442.604423 39.289949 L 442.604423 30.73974 L 456.809888 30.73974 L 456.809888 25.078364 L 442.604423 25.078364 Z M 496.849591 46.37126 L 510.52258 10.823936 L 504.371571 10.823936 L 496.849591 30.978436 L 489.32761 10.823936 L 482.986869 10.823936 L 475.458768 30.978436 L 467.985751 10.823936 L 461.834742 10.823936 L 475.458768 46.37126 L 486.15724 18.235749 Z M 496.849591 46.37126 " stroke="#f9bc8c" stroke-width="10.072404" stroke-opacity="1" stroke-miterlimit="4"/></g><g fill="#ffffff" fill-opacity="1"><g transform="translate(95.35324, 36.187316)"><g><path d="M 4.113281 0.3125 C 7.480469 0.3125 11.0625 -1.839844 11.9375 -5.921875 C 12.496094 -8.601562 11.59375 -10.84375 9.347656 -11.875 C 8.101562 -12.621094 6.574219 -12.683594 6.265625 -12.683594 C 4.800781 -12.683594 3.554688 -13.527344 3.925781 -15.238281 C 4.394531 -17.359375 6.234375 -18.480469 8.101562 -18.480469 C 9.597656 -18.480469 10.722656 -17.796875 10.378906 -15.988281 L 13.960938 -15.738281 C 14.679688 -19.445312 12.183594 -22.128906 8.257812 -22.128906 C 4.894531 -22.128906 1.246094 -19.726562 0.375 -15.675781 C -0.1875 -12.996094 0.777344 -11 2.992188 -9.972656 C 4.269531 -9.226562 5.796875 -9.164062 6.140625 -9.164062 C 7.417969 -9.101562 8.757812 -8.101562 8.414062 -6.359375 C 8.007812 -4.550781 6.109375 -3.335938 4.269531 -3.335938 C 2.804688 -3.335938 1.621094 -4.113281 1.964844 -5.921875 L -1.652344 -6.171875 C -2.460938 -2.089844 0.21875 0.21875 4.113281 0.3125 Z M 4.113281 0.3125 "/></g></g></g><g fill="#ffffff" fill-opacity="1"><g transform="translate(112.276405, 36.187316)"><g><path d="M 13.402344 -18.480469 L 13.402344 -21.816406 L 0.625 -21.816406 L 0.625 -18.480469 L 5.203125 -18.480469 L 5.203125 0 L 8.820312 0 L 8.820312 -18.480469 Z M 13.402344 -18.480469 "/></g></g></g><g fill="#ffffff" fill-opacity="1"><g transform="translate(126.237768, 36.187316)"><g><path d="M 12.527344 -2.523438 L 13.496094 0 L 17.421875 0 L 8.695312 -22.4375 L 0 0 L 3.925781 0 L 4.863281 -2.523438 Z M 6.046875 -5.671875 L 8.695312 -13.246094 L 11.34375 -5.671875 Z M 6.046875 -5.671875 "/></g></g></g><g fill="#ffffff" fill-opacity="1"><g transform="translate(143.658307, 36.187316)"><g><path d="M 9.039062 -9.101562 L 13.214844 0 L 17.234375 0 L 12.777344 -9.660156 C 14.742188 -10.378906 16.984375 -11.9375 16.984375 -15.457031 C 16.984375 -21.816406 9.691406 -21.816406 9.691406 -21.816406 L 2.429688 -21.816406 L 2.429688 0 L 6.078125 0 L 6.078125 -9.101562 Z M 6.078125 -12.714844 L 6.078125 -18.167969 L 9.691406 -18.167969 C 9.691406 -18.167969 13.339844 -18.167969 13.339844 -15.457031 C 13.339844 -12.714844 9.691406 -12.714844 9.691406 -12.714844 Z M 6.078125 -12.714844 "/></g></g></g><g fill="#ffffff" fill-opacity="1"><g transform="translate(162.325396, 36.187316)"><g><path d="M 8.507812 0.3125 C 12.03125 0.3125 15.300781 -1.933594 15.300781 -6.109375 C 15.300781 -8.695312 14.054688 -10.90625 11.75 -11.96875 C 10.191406 -12.683594 8.664062 -12.683594 8.507812 -12.683594 C 6.886719 -12.683594 5.328125 -13.648438 5.328125 -15.457031 C 5.328125 -17.484375 6.792969 -18.480469 8.507812 -18.480469 C 10.160156 -18.480469 11.5625 -17.671875 11.625 -15.863281 L 15.238281 -15.863281 C 15.175781 -19.570312 12.277344 -22.128906 8.507812 -22.128906 C 4.988281 -22.128906 1.683594 -19.601562 1.683594 -15.457031 C 1.683594 -12.871094 2.960938 -10.9375 5.234375 -9.878906 C 6.824219 -9.164062 8.320312 -9.164062 8.507812 -9.164062 C 9.972656 -9.101562 11.6875 -7.945312 11.6875 -6.109375 C 11.6875 -4.394531 10.191406 -3.335938 8.507812 -3.335938 C 6.886719 -3.335938 5.390625 -4.238281 5.328125 -6.046875 L 1.683594 -6.046875 C 1.746094 -1.964844 4.738281 0.21875 8.507812 0.3125 Z M 8.507812 0.3125 "/></g></g></g><g fill="#ffffff" fill-opacity="1"><g transform="translate(179.247315, 36.187316)"><g><path d="M 18.886719 -21.816406 L 15.238281 -21.816406 L 15.238281 -12.777344 L 6.171875 -12.777344 L 6.171875 -21.816406 L 2.523438 -21.816406 L 2.523438 0 L 6.171875 0 L 6.171875 -9.101562 L 15.238281 -9.101562 L 15.238281 0 L 18.886719 0 Z M 18.886719 -21.816406 "/></g></g></g><g fill="#ffffff" fill-opacity="1"><g transform="translate(200.625651, 36.187316)"><g><path d="M 2.554688 0 L 6.203125 0 L 6.203125 -21.816406 L 2.554688 -21.816406 Z M 2.554688 0 "/></g></g></g><g fill="#ffffff" fill-opacity="1"><g transform="translate(209.351502, 36.187316)"><g><path d="M 9.753906 -21.816406 L 2.460938 -21.816406 L 2.460938 0.0625 L 6.109375 0.0625 L 6.109375 -9.039062 L 9.753906 -9.039062 C 9.753906 -9.039062 17.046875 -9.039062 17.046875 -15.425781 C 17.046875 -21.816406 9.753906 -21.816406 9.753906 -21.816406 Z M 9.753906 -12.683594 L 6.109375 -12.683594 L 6.109375 -18.167969 L 9.753906 -18.167969 C 9.753906 -18.167969 13.402344 -18.167969 13.402344 -15.425781 C 13.402344 -12.683594 9.753906 -12.683594 9.753906 -12.683594 Z M 9.753906 -12.683594 "/></g></g></g><g fill="#ffffff" fill-opacity="1"><g transform="translate(227.426478, 36.187316)"><g><path d="M 7.078125 -22.71875 L 7.296875 -22.390625 C 6.785156 -20.390625 5.890625 -17.957031 4.609375 -15.09375 L 2.53125 -15.09375 C 3.238281 -18.164062 3.742188 -20.707031 4.046875 -22.71875 Z M 6.890625 -19.390625 Z M 6.8125 -27.9375 Z M 6.8125 -27.9375 "/></g></g></g><g fill="#ffffff" fill-opacity="1"><g transform="translate(237.134722, 36.187316)"><g><path d="M 8.507812 0.3125 C 12.03125 0.3125 15.300781 -1.933594 15.300781 -6.109375 C 15.300781 -8.695312 14.054688 -10.90625 11.75 -11.96875 C 10.191406 -12.683594 8.664062 -12.683594 8.507812 -12.683594 C 6.886719 -12.683594 5.328125 -13.648438 5.328125 -15.457031 C 5.328125 -17.484375 6.792969 -18.480469 8.507812 -18.480469 C 10.160156 -18.480469 11.5625 -17.671875 11.625 -15.863281 L 15.238281 -15.863281 C 15.175781 -19.570312 12.277344 -22.128906 8.507812 -22.128906 C 4.988281 -22.128906 1.683594 -19.601562 1.683594 -15.457031 C 1.683594 -12.871094 2.960938 -10.9375 5.234375 -9.878906 C 6.824219 -9.164062 8.320312 -9.164062 8.507812 -9.164062 C 9.972656 -9.101562 11.6875 -7.945312 11.6875 -6.109375 C 11.6875 -4.394531 10.191406 -3.335938 8.507812 -3.335938 C 6.886719 -3.335938 5.390625 -4.238281 5.328125 -6.046875 L 1.683594 -6.046875 C 1.746094 -1.964844 4.738281 0.21875 8.507812 0.3125 Z M 8.507812 0.3125 "/></g></g></g><g fill="#ffffff" fill-opacity="1"><g transform="translate(254.064014, 36.187316)"><g/></g></g><g fill="#ffffff" fill-opacity="1"><g transform="translate(264.815509, 36.187316)"><g><path d="M 8.414062 -3.335938 C 4.550781 -3.335938 2.089844 -6.109375 3.054688 -10.691406 C 4.019531 -15.175781 7.605469 -18.480469 12.246094 -18.480469 C 14.085938 -18.480469 15.707031 -17.765625 16.734375 -16.457031 L 19.664062 -18.824219 C 18.074219 -20.816406 15.582031 -22.128906 12.402344 -22.128906 C 6.171875 -22.128906 0.808594 -17.609375 -0.5625 -11.125 C -2.027344 -4.175781 2.089844 0.3125 8.257812 0.3125 C 11.125 0.3125 14.023438 -0.808594 16.394531 -2.773438 L 14.179688 -5.546875 C 12.652344 -4.238281 10.566406 -3.335938 8.414062 -3.335938 Z M 8.414062 -3.335938 "/></g></g></g><g fill="#ffffff" fill-opacity="1"><g transform="translate(286.444399, 36.187316)"><g><path d="M 9.039062 -9.101562 L 13.214844 0 L 17.234375 0 L 12.777344 -9.660156 C 14.742188 -10.378906 16.984375 -11.9375 16.984375 -15.457031 C 16.984375 -21.816406 9.691406 -21.816406 9.691406 -21.816406 L 2.429688 -21.816406 L 2.429688 0 L 6.078125 0 L 6.078125 -9.101562 Z M 6.078125 -12.714844 L 6.078125 -18.167969 L 9.691406 -18.167969 C 9.691406 -18.167969 13.339844 -18.167969 13.339844 -15.457031 C 13.339844 -12.714844 9.691406 -12.714844 9.691406 -12.714844 Z M 6.078125 -12.714844 "/></g></g></g><g fill="#ffffff" fill-opacity="1"><g transform="translate(305.111488, 36.187316)"><g><path d="M 6.109375 -18.167969 L 17.015625 -18.167969 L 17.015625 -21.816406 L 2.460938 -21.816406 L 2.460938 0 L 17.015625 0 L 17.015625 -3.644531 L 6.109375 -3.644531 L 6.109375 -9.101562 L 15.175781 -9.101562 L 15.175781 -12.714844 L 6.109375 -12.714844 Z M 6.109375 -18.167969 "/></g></g></g><g fill="#ffffff" fill-opacity="1"><g transform="translate(323.435776, 36.187316)"><g><path d="M 22.40625 0.871094 L 31.132812 -21.816406 L 27.207031 -21.816406 L 22.40625 -8.945312 L 17.609375 -21.816406 L 13.558594 -21.816406 L 8.757812 -8.945312 L 3.988281 -21.816406 L 0.0625 -21.816406 L 8.757812 0.871094 L 15.582031 -17.078125 Z M 22.40625 0.871094 "/></g></g></g></svg>