<svg xmlns="http://www.w3.org/2000/svg" xmlns:xlink="http://www.w3.org/1999/xlink" width="600" zoomAndPan="magnify" viewBox="0 0 450 52.499999" height="70" preserveAspectRatio="xMidYMid meet" version="1.0"><defs><g/><clipPath id="5453efb825"><path d="M 76 0 L 168 0 L 168 52.003906 L 76 52.003906 Z M 76 0 " clip-rule="nonzero"/></clipPath><clipPath id="ffa4e6b662"><path d="M 99 0 L 269 0 L 269 52.003906 L 99 52.003906 Z M 99 0 " clip-rule="nonzero"/></clipPath><clipPath id="6cc3424350"><path d="M 205 0 L 296 0 L 296 52.003906 L 205 52.003906 Z M 205 0 " clip-rule="nonzero"/></clipPath><clipPath id="87b7cfbea0"><path d="M 228 0 L 370 0 L 370 52.003906 L 228 52.003906 Z M 228 0 " clip-rule="nonzero"/></clipPath></defs><g clip-path="url(#5453efb825)"><path stroke-linecap="butt" transform="matrix(0.742924, 0, 0, 0.742924, 28.737598, 7.466799)" fill="none" stroke-linejoin="miter" d="M 120.791504 25.750743 L 123.678111 25.750743 L 128.720473 38.001736 L 134.288628 38.001736 L 129.26204 25.288045 C 132.364223 24.488838 136.14468 22.564434 137.227815 17.485267 C 139.07335 8.799155 129.514421 8.636159 129.514421 8.636159 L 119.529599 8.636159 L 118.556881 13.541814 L 121.669579 20.887152 L 116.932178 20.887152 L 113.272654 38.001736 L 118.188825 38.001736 Z M 127.12206 20.845088 L 124.219679 13.541814 L 128.462834 13.541814 C 128.462834 13.541814 133.205493 13.378818 132.44835 16.901636 C 131.822655 19.924949 128.462834 20.71364 127.12206 20.845088 Z M 127.12206 20.845088 " stroke="#f9bc8c" stroke-width="8.653033" stroke-opacity="1" stroke-miterlimit="4"/></g><g clip-path="url(#ffa4e6b662)"><path stroke-linecap="butt" transform="matrix(0.742924, 0, 0, 0.742924, 28.737598, 7.466799)" fill="none" stroke-linejoin="miter" d="M 158.496169 7.963143 C 139.162735 7.963143 139.120672 38.080605 158.496169 38.080605 C 177.792797 38.080605 177.750734 7.963143 158.496169 7.963143 Z M 158.496169 33.337946 C 145.787736 33.337946 145.829799 12.742608 158.496169 12.742608 C 171.204603 12.742608 171.204603 33.337946 158.496169 33.337946 Z M 192.299445 33.516716 C 186.894286 33.516716 182.572262 29.610069 182.572262 23.311061 C 182.572262 17.406398 186.258076 13.121179 192.299445 13.121179 C 194.980993 13.121179 197.462739 14.220088 199.224148 15.981497 L 202.662839 12.537548 C 200.023355 9.856 196.36383 8.215524 192.299445 8.215524 C 183.697461 8.215524 177.571964 14.461953 177.571964 23.311061 C 177.571964 32.549256 184.196965 38.422371 192.299445 38.422371 C 196.36383 38.422371 200.023355 36.781895 202.662839 34.137153 L 199.224148 30.656398 C 197.462739 32.417807 194.980993 33.516716 192.299445 33.516716 Z M 218.641709 23.5687 L 230.755996 8.636159 L 224.630499 8.636159 L 212.595082 23.447767 L 212.595082 8.636159 L 207.689426 8.636159 L 207.689426 38.001736 L 212.595082 38.001736 L 212.595082 29.951835 L 215.360756 26.839136 L 224.42544 38.001736 L 230.84538 38.001736 Z M 239.68923 13.541814 L 254.364132 13.541814 L 254.364132 8.636159 L 234.783575 8.636159 L 234.783575 38.001736 L 254.364132 38.001736 L 254.364132 33.096081 L 239.68923 33.096081 L 239.68923 25.750743 L 251.89816 25.750743 L 251.89816 20.887152 L 239.68923 20.887152 Z M 274.160264 13.121179 L 274.160264 8.636159 L 256.961553 8.636159 L 256.961553 13.121179 L 263.129113 13.121179 L 263.129113 38.001736 L 267.992704 38.001736 L 267.992704 13.121179 Z M 274.160264 13.121179 " stroke="#f9bc8c" stroke-width="8.653033" stroke-opacity="1" stroke-miterlimit="4"/></g><g clip-path="url(#6cc3424350)"><path stroke-linecap="butt" transform="matrix(0.742924, 0, 0, 0.742924, 28.737598, 7.466799)" fill="none" stroke-linejoin="miter" d="M 294.008976 25.750743 L 296.895583 25.750743 L 301.937945 38.001736 L 307.5061 38.001736 L 302.479512 25.288045 C 305.581695 24.488838 309.362152 22.564434 310.445287 17.485267 C 312.290823 8.799155 302.737151 8.636159 302.737151 8.636159 L 292.747071 8.636159 L 291.774353 13.541814 L 294.892309 20.887152 L 290.14965 20.887152 L 286.490126 38.001736 L 291.406297 38.001736 Z M 300.339532 20.845088 L 297.442409 13.541814 L 301.680306 13.541814 C 301.680306 13.541814 306.422965 13.378818 305.665822 16.901636 C 305.040128 19.924949 301.680306 20.71364 300.339532 20.845088 Z M 300.339532 20.845088 " stroke="#f9bc8c" stroke-width="8.653033" stroke-opacity="1" stroke-miterlimit="4"/></g><g clip-path="url(#87b7cfbea0)"><path stroke-linecap="butt" transform="matrix(0.742924, 0, 0, 0.742924, 28.737598, 7.466799)" fill="none" stroke-linejoin="miter" d="M 329.368601 38.422371 C 335.61503 38.422371 340.399753 34.85749 340.399753 28.600545 L 340.399753 8.636159 L 335.494098 8.636159 L 335.494098 28.600545 C 335.494098 31.87624 332.433979 33.516716 329.368601 33.516716 C 326.266419 33.516716 323.532292 31.997172 323.285169 28.600545 L 323.285169 8.636159 L 318.379513 8.636159 L 318.379513 28.600545 C 318.379513 34.641915 323.327232 38.422371 329.368601 38.422371 Z M 351.930409 33.096081 L 351.930409 8.636159 L 347.024753 8.636159 L 347.024753 38.001736 L 362.798564 38.001736 L 362.798564 33.096081 Z M 372.941124 13.541814 L 387.616026 13.541814 L 387.616026 8.636159 L 368.035469 8.636159 L 368.035469 38.001736 L 387.616026 38.001736 L 387.616026 33.096081 L 372.941124 33.096081 L 372.941124 25.750743 L 385.150054 25.750743 L 385.150054 20.887152 L 372.941124 20.887152 Z M 400.823964 38.422371 C 405.566623 38.422371 409.972774 35.399057 409.972774 29.778323 C 409.972774 26.292311 408.290234 23.311061 405.188051 21.891418 C 403.090134 20.929215 401.039539 20.929215 400.823964 20.929215 C 398.647178 20.929215 396.544003 19.625247 396.544003 17.190822 C 396.544003 14.461953 398.520987 13.121179 400.823964 13.121179 C 403.048071 13.121179 404.940928 14.220088 405.025055 16.643997 L 409.888647 16.643997 C 409.809778 11.659473 405.908388 8.215524 400.823964 8.215524 C 396.086562 8.215524 391.638348 11.617409 391.638348 17.190822 C 391.638348 20.671576 393.357693 23.274255 396.42307 24.704414 C 398.563051 25.666616 400.582098 25.666616 400.823964 25.666616 C 402.800948 25.750743 405.109182 27.307093 405.109182 29.778323 C 405.109182 32.081299 403.090134 33.516716 400.823964 33.516716 C 398.647178 33.516716 396.638646 32.296875 396.544003 29.857192 L 391.638348 29.857192 C 391.722475 35.356994 395.755312 38.296181 400.823964 38.422371 Z M 400.823964 38.422371 " stroke="#f9bc8c" stroke-width="8.653033" stroke-opacity="1" stroke-miterlimit="4"/></g><g fill="#ffffff" fill-opacity="1"><g transform="translate(115.044527, 35.697929)"><g><path d="M 3.429688 -9.101562 L 5.578125 -9.101562 L 9.320312 0 L 13.464844 0 L 9.722656 -9.441406 C 12.03125 -10.035156 14.835938 -11.46875 15.644531 -15.238281 C 17.015625 -21.691406 9.910156 -21.816406 9.910156 -21.816406 L 2.492188 -21.816406 L 1.777344 -18.167969 L 4.082031 -12.714844 L 0.5625 -12.714844 L -2.152344 0 L 1.496094 0 Z M 8.132812 -12.746094 L 5.984375 -18.167969 L 9.132812 -18.167969 C 9.132812 -18.167969 12.652344 -18.292969 12.09375 -15.675781 C 11.625 -13.433594 9.132812 -12.839844 8.132812 -12.746094 Z M 8.132812 -12.746094 "/></g></g></g><g fill="#ffffff" fill-opacity="1"><g transform="translate(134.116791, 35.697929)"><g><path d="M 12.371094 -22.316406 C -1.996094 -22.316406 -2.027344 0.0625 12.371094 0.0625 C 26.710938 0.0625 26.679688 -22.316406 12.371094 -22.316406 Z M 12.371094 -3.460938 C 2.929688 -3.460938 2.960938 -18.761719 12.371094 -18.761719 C 21.816406 -18.761719 21.816406 -3.460938 12.371094 -3.460938 Z M 12.371094 -3.460938 "/></g></g></g><g fill="#ffffff" fill-opacity="1"><g transform="translate(158.948489, 35.697929)"><g><path d="M 12.652344 -3.335938 C 8.632812 -3.335938 5.421875 -6.234375 5.421875 -10.90625 C 5.421875 -15.300781 8.164062 -18.480469 12.652344 -18.480469 C 14.648438 -18.480469 16.488281 -17.671875 17.796875 -16.363281 L 20.351562 -18.917969 C 18.386719 -20.914062 15.675781 -22.128906 12.652344 -22.128906 C 6.265625 -22.128906 1.714844 -17.484375 1.714844 -10.90625 C 1.714844 -4.050781 6.636719 0.3125 12.652344 0.3125 C 15.675781 0.3125 18.386719 -0.902344 20.351562 -2.867188 L 17.796875 -5.453125 C 16.488281 -4.144531 14.648438 -3.335938 12.652344 -3.335938 Z M 12.652344 -3.335938 "/></g></g></g><g fill="#ffffff" fill-opacity="1"><g transform="translate(180.571076, 35.697929)"><g><path d="M 10.597656 -10.722656 L 19.601562 -21.816406 L 15.054688 -21.816406 L 6.109375 -10.816406 L 6.109375 -21.816406 L 2.460938 -21.816406 L 2.460938 0 L 6.109375 0 L 6.109375 -5.984375 L 8.164062 -8.289062 L 14.898438 0 L 19.664062 0 Z M 10.597656 -10.722656 "/></g></g></g><g fill="#ffffff" fill-opacity="1"><g transform="translate(200.698156, 35.697929)"><g><path d="M 6.109375 -18.167969 L 17.015625 -18.167969 L 17.015625 -21.816406 L 2.460938 -21.816406 L 2.460938 0 L 17.015625 0 L 17.015625 -3.644531 L 6.109375 -3.644531 L 6.109375 -9.101562 L 15.175781 -9.101562 L 15.175781 -12.714844 L 6.109375 -12.714844 Z M 6.109375 -18.167969 "/></g></g></g><g fill="#ffffff" fill-opacity="1"><g transform="translate(219.018155, 35.697929)"><g><path d="M 13.402344 -18.480469 L 13.402344 -21.816406 L 0.625 -21.816406 L 0.625 -18.480469 L 5.203125 -18.480469 L 5.203125 0 L 8.820312 0 L 8.820312 -18.480469 Z M 13.402344 -18.480469 "/></g></g></g><g fill="#ffffff" fill-opacity="1"><g transform="translate(232.983792, 35.697929)"><g/></g></g><g fill="#ffffff" fill-opacity="1"><g transform="translate(243.732776, 35.697929)"><g><path d="M 3.429688 -9.101562 L 5.578125 -9.101562 L 9.320312 0 L 13.464844 0 L 9.722656 -9.441406 C 12.03125 -10.035156 14.835938 -11.46875 15.644531 -15.238281 C 17.015625 -21.691406 9.910156 -21.816406 9.910156 -21.816406 L 2.492188 -21.816406 L 1.777344 -18.167969 L 4.082031 -12.714844 L 0.5625 -12.714844 L -2.152344 0 L 1.496094 0 Z M 8.132812 -12.746094 L 5.984375 -18.167969 L 9.132812 -18.167969 C 9.132812 -18.167969 12.652344 -18.292969 12.09375 -15.675781 C 11.625 -13.433594 9.132812 -12.839844 8.132812 -12.746094 Z M 8.132812 -12.746094 "/></g></g></g><g fill="#ffffff" fill-opacity="1"><g transform="translate(262.805241, 35.697929)"><g><path d="M 10.628906 0.3125 C 15.269531 0.3125 18.824219 -2.335938 18.824219 -6.980469 L 18.824219 -21.816406 L 15.175781 -21.816406 L 15.175781 -6.980469 C 15.175781 -4.550781 12.902344 -3.335938 10.628906 -3.335938 C 8.320312 -3.335938 6.296875 -4.457031 6.109375 -6.980469 L 6.109375 -21.816406 L 2.460938 -21.816406 L 2.460938 -6.980469 C 2.460938 -2.492188 6.140625 0.3125 10.628906 0.3125 Z M 10.628906 0.3125 "/></g></g></g><g fill="#ffffff" fill-opacity="1"><g transform="translate(284.085103, 35.697929)"><g><path d="M 6.109375 -3.644531 L 6.109375 -21.816406 L 2.460938 -21.816406 L 2.460938 0 L 14.179688 0 L 14.179688 -3.644531 Z M 6.109375 -3.644531 "/></g></g></g><g fill="#ffffff" fill-opacity="1"><g transform="translate(299.694486, 35.697929)"><g><path d="M 6.109375 -18.167969 L 17.015625 -18.167969 L 17.015625 -21.816406 L 2.460938 -21.816406 L 2.460938 0 L 17.015625 0 L 17.015625 -3.644531 L 6.109375 -3.644531 L 6.109375 -9.101562 L 15.175781 -9.101562 L 15.175781 -12.714844 L 6.109375 -12.714844 Z M 6.109375 -18.167969 "/></g></g></g><g fill="#ffffff" fill-opacity="1"><g transform="translate(318.014485, 35.697929)"><g><path d="M 8.507812 0.3125 C 12.03125 0.3125 15.300781 -1.933594 15.300781 -6.109375 C 15.300781 -8.695312 14.054688 -10.90625 11.75 -11.96875 C 10.191406 -12.683594 8.664062 -12.683594 8.507812 -12.683594 C 6.886719 -12.683594 5.328125 -13.652344 5.328125 -15.457031 C 5.328125 -17.484375 6.792969 -18.480469 8.507812 -18.480469 C 10.160156 -18.480469 11.5625 -17.671875 11.625 -15.863281 L 15.238281 -15.863281 C 15.175781 -19.570312 12.277344 -22.128906 8.507812 -22.128906 C 4.988281 -22.128906 1.683594 -19.601562 1.683594 -15.457031 C 1.683594 -12.871094 2.960938 -10.9375 5.234375 -9.878906 C 6.824219 -9.164062 8.320312 -9.164062 8.507812 -9.164062 C 9.972656 -9.101562 11.6875 -7.945312 11.6875 -6.109375 C 11.6875 -4.394531 10.191406 -3.335938 8.507812 -3.335938 C 6.886719 -3.335938 5.390625 -4.238281 5.328125 -6.046875 L 1.683594 -6.046875 C 1.746094 -1.964844 4.738281 0.21875 8.507812 0.3125 Z M 8.507812 0.3125 "/></g></g></g></svg>