<svg xmlns="http://www.w3.org/2000/svg" xmlns:xlink="http://www.w3.org/1999/xlink" width="600" zoomAndPan="magnify" viewBox="0 0 450 52.499999" height="70" preserveAspectRatio="xMidYMid meet" version="1.0"><defs><g/><clipPath id="1aeb242be5"><path d="M 2.121094 0 L 83 0 L 83 52.003906 L 2.121094 52.003906 Z M 2.121094 0 " clip-rule="nonzero"/></clipPath><clipPath id="7704c27bbf"><path d="M 2.121094 0 L 315 0 L 315 52.003906 L 2.121094 52.003906 Z M 2.121094 0 " clip-rule="nonzero"/></clipPath><clipPath id="321d95eca9"><path d="M 243 0 L 353 0 L 353 52.003906 L 243 52.003906 Z M 243 0 " clip-rule="nonzero"/></clipPath><clipPath id="519c1974b6"><path d="M 272 0 L 447.875 0 L 447.875 52.003906 L 272 52.003906 Z M 272 0 " clip-rule="nonzero"/></clipPath></defs><g clip-path="url(#1aeb242be5)"><path stroke-linecap="butt" transform="matrix(0.346494, 0, 0, 0.346494, -3.455726, 6.10474)" fill="none" stroke-linejoin="miter" d="M 86.893484 86.797889 C 73.917519 86.797889 65.631391 77.474586 68.8782 62.086061 C 72.12501 47.001925 84.165262 35.908659 99.779259 35.908659 C 105.945943 35.908659 111.391113 38.309946 114.863395 42.706667 L 124.705287 34.758748 C 119.361579 28.062203 110.985262 23.665482 100.297847 23.665482 C 79.36269 23.665482 61.336132 38.839807 56.736486 60.620488 C 51.821177 83.968205 65.631391 99.052341 86.363623 99.052341 C 96.002588 99.052341 105.743017 95.286944 113.690936 88.669314 L 106.272878 79.368558 C 101.14337 83.765279 94.131163 86.797889 86.893484 86.797889 Z M 86.893484 86.797889 " stroke="#f9bc8c" stroke-width="21.596437" stroke-opacity="1" stroke-miterlimit="4"/></g><g clip-path="url(#7704c27bbf)"><path stroke-linecap="butt" transform="matrix(0.346494, 0, 0, 0.346494, -3.455726, 6.10474)" fill="none" stroke-linejoin="miter" d="M 172.866295 23.022884 C 124.603824 23.022884 124.502361 98.206817 172.866295 98.206817 C 221.027303 98.206817 220.92584 23.022884 172.866295 23.022884 Z M 172.866295 86.369491 C 141.14226 86.369491 141.243723 34.961673 172.866295 34.961673 C 204.59033 34.961673 204.59033 86.369491 172.866295 86.369491 Z M 284.069521 98.003892 L 284.069521 24.702657 L 271.905259 24.702657 L 271.905259 76.854535 L 235.378652 24.702657 L 223.022738 24.702657 L 223.022738 98.003892 L 235.277189 98.003892 L 235.277189 45.852014 L 271.702334 98.003892 Z M 321.013254 99.052341 C 332.85058 99.052341 343.842383 91.510273 343.842383 77.474586 C 343.842383 68.782606 339.648588 61.342001 331.903594 57.790803 C 326.661349 55.389517 321.554389 55.389517 321.013254 55.389517 C 315.568083 55.389517 310.325839 52.142707 310.325839 46.054939 C 310.325839 39.256932 315.263695 35.908659 321.013254 35.908659 C 326.559887 35.908659 331.294817 38.636881 331.497743 44.702102 L 343.639458 44.702102 C 343.436532 32.244725 333.696103 23.665482 321.013254 23.665482 C 309.175927 23.665482 298.082661 32.143262 298.082661 46.054939 C 298.082661 54.746919 302.37792 61.240538 310.02145 64.814283 C 315.365158 67.215569 320.404477 67.215569 321.013254 67.215569 C 325.95111 67.429769 331.700668 71.307902 331.700668 77.474586 C 331.700668 83.224144 326.661349 86.797889 321.013254 86.797889 C 315.568083 86.797889 310.562585 83.765279 310.325839 77.677511 L 298.082661 77.677511 C 298.285587 91.40881 308.364225 98.736679 321.013254 99.052341 Z M 394.303215 35.908659 L 394.303215 24.702657 L 351.384451 24.702657 L 351.384451 35.908659 L 366.772976 35.908659 L 366.772976 98.003892 L 378.91469 98.003892 L 378.91469 35.908659 Z M 438.304248 89.514838 L 441.551058 98.003892 L 454.741221 98.003892 L 425.418473 22.617033 L 396.197187 98.003892 L 409.387351 98.003892 L 412.532697 89.514838 Z M 416.523568 78.951433 L 425.418473 53.495544 L 434.313378 78.951433 Z M 475.24798 85.749441 L 475.24798 24.702657 L 463.004803 24.702657 L 463.004803 98.003892 L 502.372368 98.003892 L 502.372368 85.749441 Z M 549.282002 89.514838 L 552.528812 98.003892 L 565.718975 98.003892 L 536.396227 22.617033 L 507.186214 98.003892 L 520.376378 98.003892 L 523.521725 89.514838 Z M 527.501321 78.951433 L 536.396227 53.495544 L 545.302406 78.951433 Z M 610.723363 35.908659 L 610.723363 24.702657 L 567.804599 24.702657 L 567.804599 35.908659 L 583.193124 35.908659 L 583.193124 98.003892 L 595.334839 98.003892 L 595.334839 35.908659 Z M 621.207852 98.003892 L 633.45103 98.003892 L 633.45103 24.702657 L 621.207852 24.702657 Z M 683.50601 23.022884 C 635.232266 23.022884 635.130803 98.206817 683.50601 98.206817 C 731.667018 98.206817 731.565556 23.022884 683.50601 23.022884 Z M 683.50601 86.369491 C 651.781975 86.369491 651.883438 34.961673 683.50601 34.961673 C 715.230045 34.961673 715.230045 86.369491 683.50601 86.369491 Z M 794.709237 98.003892 L 794.709237 24.702657 L 782.544975 24.702657 L 782.544975 76.854535 L 746.018368 24.702657 L 733.662453 24.702657 L 733.662453 98.003892 L 745.905631 98.003892 L 745.905631 45.852014 L 782.342049 98.003892 Z M 794.709237 98.003892 " stroke="#f9bc8c" stroke-width="21.596437" stroke-opacity="1" stroke-miterlimit="4"/></g><g clip-path="url(#321d95eca9)"><path stroke-linecap="butt" transform="matrix(0.346494, 0, 0, 0.346494, -3.455726, 6.10474)" fill="none" stroke-linejoin="miter" d="M 867.48061 86.797889 C 854.493372 86.797889 846.207244 77.474586 849.454053 62.086061 C 852.700863 47.001925 864.741115 35.908659 880.366386 35.908659 C 886.521796 35.908659 891.966966 38.309946 895.439248 42.706667 L 905.28114 34.758748 C 899.948706 28.062203 891.561115 23.665482 880.8737 23.665482 C 859.938542 23.665482 841.911985 38.839807 837.312338 60.620488 C 832.408303 83.968205 846.207244 99.052341 866.939476 99.052341 C 876.578441 99.052341 886.31887 95.286944 894.266789 88.669314 L 886.860005 79.368558 C 881.719223 83.765279 874.707016 86.797889 867.48061 86.797889 Z M 867.48061 86.797889 " stroke="#f9bc8c" stroke-width="21.596437" stroke-opacity="1" stroke-miterlimit="4"/></g><g clip-path="url(#519c1974b6)"><path stroke-linecap="butt" transform="matrix(0.346494, 0, 0, 0.346494, -3.455726, 6.10474)" fill="none" stroke-linejoin="miter" d="M 953.442148 23.022884 C 905.179677 23.022884 905.078214 98.206817 953.442148 98.206817 C 1001.603156 98.206817 1001.501693 23.022884 953.442148 23.022884 Z M 953.442148 86.369491 C 921.718113 86.369491 921.819576 34.961673 953.442148 34.961673 C 985.166183 34.961673 985.166183 86.369491 953.442148 86.369491 Z M 1025.694934 67.429769 L 1039.730621 98.003892 L 1053.225173 98.003892 L 1038.2425 65.535796 C 1044.837582 63.13451 1052.379649 57.892266 1052.379649 46.054939 C 1052.379649 24.702657 1027.893294 24.702657 1027.893294 24.702657 L 1003.474581 24.702657 L 1003.474581 98.003892 L 1015.751579 98.003892 L 1015.751579 67.429769 Z M 1015.751579 55.288054 L 1015.751579 36.957108 L 1027.893294 36.957108 C 1027.893294 36.957108 1040.136472 36.957108 1040.136472 46.054939 C 1040.136472 55.288054 1027.893294 55.288054 1027.893294 55.288054 Z M 1127.371931 98.003892 L 1127.371931 24.702657 L 1115.196395 24.702657 L 1115.196395 76.854535 L 1078.669788 24.702657 L 1066.325147 24.702657 L 1066.325147 98.003892 L 1078.568325 98.003892 L 1078.568325 45.852014 L 1114.99347 98.003892 Z M 1156.255007 36.957108 L 1192.894351 36.957108 L 1192.894351 24.702657 L 1144.01183 24.702657 L 1144.01183 98.003892 L 1192.894351 98.003892 L 1192.894351 85.749441 L 1156.255007 85.749441 L 1156.255007 67.429769 L 1186.727668 67.429769 L 1186.727668 55.288054 L 1156.255007 55.288054 Z M 1227.66227 67.429769 L 1241.697957 98.003892 L 1255.203783 98.003892 L 1240.22111 65.535796 C 1246.816192 63.13451 1254.35826 57.892266 1254.35826 46.054939 C 1254.35826 24.702657 1229.860631 24.702657 1229.860631 24.702657 L 1205.453191 24.702657 L 1205.453191 98.003892 L 1217.718916 98.003892 L 1217.718916 67.429769 Z M 1217.718916 55.288054 L 1217.718916 36.957108 L 1229.860631 36.957108 C 1229.860631 36.957108 1242.115082 36.957108 1242.115082 46.054939 C 1242.115082 55.288054 1229.860631 55.288054 1229.860631 55.288054 Z M 1217.718916 55.288054 " stroke="#f9bc8c" stroke-width="21.596437" stroke-opacity="1" stroke-miterlimit="4"/></g><g fill="#ffffff" fill-opacity="1"><g transform="translate(16.857484, 40.061152)"><g><path d="M 9.796875 -3.882812 C 5.296875 -3.882812 2.429688 -7.109375 3.554688 -12.445312 C 4.679688 -17.667969 8.851562 -21.515625 14.257812 -21.515625 C 16.398438 -21.515625 18.285156 -20.679688 19.484375 -19.15625 L 22.894531 -21.914062 C 21.042969 -24.234375 18.140625 -25.761719 14.441406 -25.761719 C 7.183594 -25.761719 0.941406 -20.5 -0.652344 -12.953125 C -2.359375 -4.863281 2.429688 0.363281 9.613281 0.363281 C 12.953125 0.363281 16.328125 -0.941406 19.085938 -3.230469 L 16.507812 -6.457031 C 14.730469 -4.933594 12.300781 -3.882812 9.796875 -3.882812 Z M 9.796875 -3.882812 "/></g></g></g><g fill="#ffffff" fill-opacity="1"><g transform="translate(42.037852, 40.061152)"><g><path d="M 14.402344 -25.976562 C -2.320312 -25.976562 -2.359375 0.0742188 14.402344 0.0742188 C 31.09375 0.0742188 31.058594 -25.976562 14.402344 -25.976562 Z M 14.402344 -4.027344 C 3.410156 -4.027344 3.445312 -21.839844 14.402344 -21.839844 C 25.398438 -21.839844 25.398438 -4.027344 14.402344 -4.027344 Z M 14.402344 -4.027344 "/></g></g></g><g fill="#ffffff" fill-opacity="1"><g transform="translate(70.952236, 40.061152)"><g><path d="M 24.019531 0 L 24.019531 -25.398438 L 19.808594 -25.398438 L 19.808594 -7.328125 L 7.148438 -25.398438 L 2.867188 -25.398438 L 2.867188 0 L 7.109375 0 L 7.109375 -18.066406 L 19.738281 0 Z M 24.019531 0 "/></g></g></g><g fill="#ffffff" fill-opacity="1"><g transform="translate(97.87127, 40.061152)"><g><path d="M 9.90625 0.363281 C 14.003906 0.363281 17.8125 -2.25 17.8125 -7.109375 C 17.8125 -10.121094 16.363281 -12.699219 13.679688 -13.933594 C 11.863281 -14.765625 10.085938 -14.765625 9.90625 -14.765625 C 8.019531 -14.765625 6.203125 -15.890625 6.203125 -17.996094 C 6.203125 -20.355469 7.910156 -21.515625 9.90625 -21.515625 C 11.828125 -21.515625 13.460938 -20.570312 13.53125 -18.46875 L 17.742188 -18.46875 C 17.667969 -22.785156 14.292969 -25.761719 9.90625 -25.761719 C 5.804688 -25.761719 1.960938 -22.820312 1.960938 -17.996094 C 1.960938 -14.984375 3.445312 -12.734375 6.09375 -11.5 C 7.945312 -10.667969 9.6875 -10.667969 9.90625 -10.667969 C 11.609375 -10.59375 13.605469 -9.25 13.605469 -7.109375 C 13.605469 -5.117188 11.863281 -3.882812 9.90625 -3.882812 C 8.019531 -3.882812 6.277344 -4.933594 6.203125 -7.039062 L 1.960938 -7.039062 C 2.03125 -2.285156 5.515625 0.253906 9.90625 0.363281 Z M 9.90625 0.363281 "/></g></g></g><g fill="#ffffff" fill-opacity="1"><g transform="translate(117.570783, 40.061152)"><g><path d="M 15.601562 -21.515625 L 15.601562 -25.398438 L 0.726562 -25.398438 L 0.726562 -21.515625 L 6.058594 -21.515625 L 6.058594 0 L 10.269531 0 L 10.269531 -21.515625 Z M 15.601562 -21.515625 "/></g></g></g><g fill="#ffffff" fill-opacity="1"><g transform="translate(133.823781, 40.061152)"><g><path d="M 14.585938 -2.9375 L 15.710938 0 L 20.28125 0 L 10.121094 -26.121094 L 0 0 L 4.570312 0 L 5.660156 -2.9375 Z M 7.039062 -6.601562 L 10.121094 -15.417969 L 13.207031 -6.601562 Z M 7.039062 -6.601562 "/></g></g></g><g fill="#ffffff" fill-opacity="1"><g transform="translate(154.103756, 40.061152)"><g><path d="M 7.109375 -4.246094 L 7.109375 -25.398438 L 2.867188 -25.398438 L 2.867188 0 L 16.507812 0 L 16.507812 -4.246094 Z M 7.109375 -4.246094 "/></g></g></g><g fill="#ffffff" fill-opacity="1"><g transform="translate(172.279549, 40.061152)"><g><path d="M 14.585938 -2.9375 L 15.710938 0 L 20.28125 0 L 10.121094 -26.121094 L 0 0 L 4.570312 0 L 5.660156 -2.9375 Z M 7.039062 -6.601562 L 10.121094 -15.417969 L 13.207031 -6.601562 Z M 7.039062 -6.601562 "/></g></g></g><g fill="#ffffff" fill-opacity="1"><g transform="translate(192.559525, 40.061152)"><g><path d="M 15.601562 -21.515625 L 15.601562 -25.398438 L 0.726562 -25.398438 L 0.726562 -21.515625 L 6.058594 -21.515625 L 6.058594 0 L 10.269531 0 L 10.269531 -21.515625 Z M 15.601562 -21.515625 "/></g></g></g><g fill="#ffffff" fill-opacity="1"><g transform="translate(208.812533, 40.061152)"><g><path d="M 2.976562 0 L 7.21875 0 L 7.21875 -25.398438 L 2.976562 -25.398438 Z M 2.976562 0 "/></g></g></g><g fill="#ffffff" fill-opacity="1"><g transform="translate(218.970661, 40.061152)"><g><path d="M 14.402344 -25.976562 C -2.320312 -25.976562 -2.359375 0.0742188 14.402344 0.0742188 C 31.09375 0.0742188 31.058594 -25.976562 14.402344 -25.976562 Z M 14.402344 -4.027344 C 3.410156 -4.027344 3.445312 -21.839844 14.402344 -21.839844 C 25.398438 -21.839844 25.398438 -4.027344 14.402344 -4.027344 Z M 14.402344 -4.027344 "/></g></g></g><g fill="#ffffff" fill-opacity="1"><g transform="translate(247.885039, 40.061152)"><g><path d="M 24.019531 0 L 24.019531 -25.398438 L 19.808594 -25.398438 L 19.808594 -7.328125 L 7.148438 -25.398438 L 2.867188 -25.398438 L 2.867188 0 L 7.109375 0 L 7.109375 -18.066406 L 19.738281 0 Z M 24.019531 0 "/></g></g></g><g fill="#ffffff" fill-opacity="1"><g transform="translate(274.804074, 40.061152)"><g/></g></g><g fill="#ffffff" fill-opacity="1"><g transform="translate(287.323117, 40.061152)"><g><path d="M 9.796875 -3.882812 C 5.296875 -3.882812 2.429688 -7.109375 3.554688 -12.445312 C 4.679688 -17.667969 8.851562 -21.515625 14.257812 -21.515625 C 16.398438 -21.515625 18.285156 -20.679688 19.484375 -19.15625 L 22.894531 -21.914062 C 21.042969 -24.234375 18.140625 -25.761719 14.441406 -25.761719 C 7.183594 -25.761719 0.941406 -20.5 -0.652344 -12.953125 C -2.359375 -4.863281 2.429688 0.363281 9.613281 0.363281 C 12.953125 0.363281 16.328125 -0.941406 19.085938 -3.230469 L 16.507812 -6.457031 C 14.730469 -4.933594 12.300781 -3.882812 9.796875 -3.882812 Z M 9.796875 -3.882812 "/></g></g></g><g fill="#ffffff" fill-opacity="1"><g transform="translate(312.503483, 40.061152)"><g><path d="M 14.402344 -25.976562 C -2.320312 -25.976562 -2.359375 0.0742188 14.402344 0.0742188 C 31.09375 0.0742188 31.058594 -25.976562 14.402344 -25.976562 Z M 14.402344 -4.027344 C 3.410156 -4.027344 3.445312 -21.839844 14.402344 -21.839844 C 25.398438 -21.839844 25.398438 -4.027344 14.402344 -4.027344 Z M 14.402344 -4.027344 "/></g></g></g><g fill="#ffffff" fill-opacity="1"><g transform="translate(341.417867, 40.061152)"><g><path d="M 10.523438 -10.59375 L 15.382812 0 L 20.0625 0 L 14.875 -11.246094 C 17.160156 -12.082031 19.773438 -13.894531 19.773438 -17.996094 C 19.773438 -25.398438 11.285156 -25.398438 11.285156 -25.398438 L 2.828125 -25.398438 L 2.828125 0 L 7.074219 0 L 7.074219 -10.59375 Z M 7.074219 -14.804688 L 7.074219 -21.152344 L 11.285156 -21.152344 C 11.285156 -21.152344 15.527344 -21.152344 15.527344 -17.996094 C 15.527344 -14.804688 11.285156 -14.804688 11.285156 -14.804688 Z M 7.074219 -14.804688 "/></g></g></g><g fill="#ffffff" fill-opacity="1"><g transform="translate(363.149003, 40.061152)"><g><path d="M 24.019531 0 L 24.019531 -25.398438 L 19.808594 -25.398438 L 19.808594 -7.328125 L 7.148438 -25.398438 L 2.867188 -25.398438 L 2.867188 0 L 7.109375 0 L 7.109375 -18.066406 L 19.738281 0 Z M 24.019531 0 "/></g></g></g><g fill="#ffffff" fill-opacity="1"><g transform="translate(390.068037, 40.061152)"><g><path d="M 7.109375 -21.152344 L 19.808594 -21.152344 L 19.808594 -25.398438 L 2.867188 -25.398438 L 2.867188 0 L 19.808594 0 L 19.808594 -4.246094 L 7.109375 -4.246094 L 7.109375 -10.59375 L 17.667969 -10.59375 L 17.667969 -14.804688 L 7.109375 -14.804688 Z M 7.109375 -21.152344 "/></g></g></g><g fill="#ffffff" fill-opacity="1"><g transform="translate(411.40011, 40.061152)"><g><path d="M 10.523438 -10.59375 L 15.382812 0 L 20.0625 0 L 14.875 -11.246094 C 17.160156 -12.082031 19.773438 -13.894531 19.773438 -17.996094 C 19.773438 -25.398438 11.285156 -25.398438 11.285156 -25.398438 L 2.828125 -25.398438 L 2.828125 0 L 7.074219 0 L 7.074219 -10.59375 Z M 7.074219 -14.804688 L 7.074219 -21.152344 L 11.285156 -21.152344 C 11.285156 -21.152344 15.527344 -21.152344 15.527344 -17.996094 C 15.527344 -14.804688 11.285156 -14.804688 11.285156 -14.804688 Z M 7.074219 -14.804688 "/></g></g></g></svg>